<svg xmlns="http://www.w3.org/2000/svg" viewBox="0 0 100 100">
  <!-- Background -->
  <rect width="100" height="100" rx="10" ry="10" fill="#000000" />
  
  <!-- Glow effect for better visibility -->
  <filter id="glow">
    <feGaussianBlur stdDeviation="2" result="blur" />
    <feComposite in="SourceGraphic" in2="blur" operator="over" />
  </filter>
  
  <!-- Stylized F with flames -->
  <g filter="url(#glow)">
    <!-- Main F shape - bolder and more vibrant -->
    <path d="M32 20 L72 20 L72 38 L47 38 L47 46 L67 46 L67 64 L47 64 L47 85 L32 85 Z" fill="#ff6600" stroke="#ff9900" stroke-width="1" />
    
    <!-- Enhanced flame elements with gradient -->
    <defs>
      <linearGradient id="flameGradient" x1="0%" y1="0%" x2="100%" y2="100%">
        <stop offset="0%" style="stop-color:#ffcc00;stop-opacity:1" />
        <stop offset="50%" style="stop-color:#ff6600;stop-opacity:1" />
        <stop offset="100%" style="stop-color:#ff3300;stop-opacity:1" />
      </linearGradient>
    </defs>
    
    <!-- Multiple flame elements for a more dynamic look -->
    <path d="M20 20 Q25 35 20 45 Q15 30 20 20 Z" fill="url(#flameGradient)" />
    <path d="M15 30 Q20 45 15 60 Q10 45 15 30 Z" fill="url(#flameGradient)" />
    <path d="M22 25 Q27 40 22 55 Q17 40 22 25 Z" fill="url(#flameGradient)" />
    <path d="M25 20 Q30 35 25 50 Q20 35 25 20 Z" fill="url(#flameGradient)" />
  </g>
</svg> 